# xmcd
#
# Track frame offsets:
#	150
#	24212
#	48580
#	68795
#	98882
#	131077
#	176947
#	203122
#	227260
#	248437
#	269810
#
# Disc length: 3907 seconds
#
# Revision: 0
# Processed by: cddbd v1.5.1PL0 Copyright (c) Steve Scherf et al.
# Submitted via: dBpowerAMP V4.0
#
DISCID=960f410b
DTITLE=Beto Zabaleta y Goyo Oviedo, Jorge Celedon y Jimmy Zambrano - Lo mejor del vallenato en vivo 2 Cd 1
DYEAR=2005
DGENRE=
TTITLE0=Un compromiso contigo
TTITLE1=Fiesta en corraleja
TTITLE2=No vales nada
TTITLE3=Volvi a soñar
TTITLE4=En el Lugar Equivocado
TTITLE5=Mosaico Los Betos
TTITLE6=Eres lo mas bello
TTITLE7=Parranda en el cafetal
TTITLE8=Ilusionate
TTITLE9=Como te Olvido
TTITLE10=Camino Largo
EXTD=Vallenato Colombiano Exitos 2005 en vivo
EXTT0=
EXTT1=
EXTT2=
EXTT3=
EXTT4=
EXTT5=
EXTT6=
EXTT7=
EXTT8=
EXTT9=
EXTT10=
PLAYORDER=
